<svg width="24" height="25" viewBox="0 0 24 25" fill="none" xmlns="http://www.w3.org/2000/svg">
<path fill-rule="evenodd" clip-rule="evenodd" d="M14.447 3.52699C14.6388 3.57917 14.8021 3.70539 14.9009 3.8779C14.9998 4.05041 15.026 4.25511 14.974 4.44699L10.474 20.947C10.4217 21.139 10.2954 21.3024 10.1226 21.4012C9.94992 21.5001 9.74501 21.5262 9.553 21.474C9.36098 21.4217 9.19758 21.2954 9.09875 21.1226C8.99992 20.9499 8.97375 20.745 9.026 20.553L13.526 4.05299C13.5784 3.86111 13.7048 3.69789 13.8776 3.59925C14.0503 3.50061 14.2551 3.47461 14.447 3.52699ZM16.72 6.71999C16.8606 6.57954 17.0512 6.50065 17.25 6.50065C17.4487 6.50065 17.6394 6.57954 17.78 6.71999L23.03 11.97C23.1704 12.1106 23.2493 12.3012 23.2493 12.5C23.2493 12.6987 23.1704 12.8894 23.03 13.03L17.78 18.28C17.7113 18.3537 17.6285 18.4128 17.5365 18.4538C17.4445 18.4948 17.3452 18.5168 17.2445 18.5186C17.1438 18.5204 17.0438 18.5018 16.9504 18.4641C16.857 18.4264 16.7722 18.3702 16.701 18.299C16.6297 18.2278 16.5736 18.143 16.5359 18.0496C16.4982 17.9562 16.4796 17.8562 16.4814 17.7555C16.4832 17.6548 16.5052 17.5554 16.5462 17.4634C16.5872 17.3714 16.6463 17.2886 16.72 17.22L21.44 12.5L16.72 7.77999C16.5795 7.63936 16.5007 7.44874 16.5007 7.24999C16.5007 7.05124 16.5795 6.86061 16.72 6.71999ZM7.28 6.71999C7.42045 6.86061 7.49934 7.05124 7.49934 7.24999C7.49934 7.44874 7.42045 7.63936 7.28 7.77999L2.56 12.5L7.28 17.22C7.35368 17.2886 7.41279 17.3714 7.45378 17.4634C7.49477 17.5554 7.51681 17.6548 7.51859 17.7555C7.52036 17.8562 7.50184 17.9562 7.46412 18.0496C7.4264 18.143 7.37025 18.2278 7.29903 18.299C7.22782 18.3702 7.14298 18.4264 7.04959 18.4641C6.95621 18.5018 6.85618 18.5204 6.75547 18.5186C6.65477 18.5168 6.55546 18.4948 6.46346 18.4538C6.37146 18.4128 6.28866 18.3537 6.22 18.28L0.969996 13.03C0.829546 12.8894 0.750656 12.6987 0.750656 12.5C0.750656 12.3012 0.829546 12.1106 0.969996 11.97L6.22 6.71999C6.36062 6.57954 6.55125 6.50065 6.75 6.50065C6.94875 6.50065 7.13937 6.57954 7.28 6.71999Z" fill="black"/>
</svg>
